<svg width="31" height="18" viewBox="0 0 31 18" fill="none" xmlns="http://www.w3.org/2000/svg">
<path d="M12.164 13.088H4.724L3.308 17H0.956L7.22 0.391999H9.692L15.932 17H13.58L12.164 13.088ZM11.54 11.384L8.444 2.84L5.348 11.384H11.54ZM23.9746 3.656C25.6546 3.656 27.0466 4.104 28.1506 5C29.2546 5.896 29.9346 7.096 30.1906 8.6H27.8866C27.7266 7.656 27.2866 6.92 26.5666 6.392C25.8626 5.848 24.9826 5.576 23.9266 5.576C23.1586 5.576 22.4546 5.752 21.8146 6.104C21.1906 6.456 20.6866 7 20.3026 7.736C19.9186 8.456 19.7266 9.352 19.7266 10.424C19.7266 11.496 19.9186 12.4 20.3026 13.136C20.6866 13.856 21.1906 14.392 21.8146 14.744C22.4546 15.096 23.1586 15.272 23.9266 15.272C24.9826 15.272 25.8626 15 26.5666 14.456C27.2866 13.912 27.7266 13.168 27.8866 12.224H30.1906C29.9346 13.744 29.2546 14.952 28.1506 15.848C27.0466 16.728 25.6546 17.168 23.9746 17.168C22.7106 17.168 21.5906 16.896 20.6146 16.352C19.6386 15.808 18.8706 15.032 18.3106 14.024C17.7666 13 17.4946 11.8 17.4946 10.424C17.4946 9.048 17.7666 7.848 18.3106 6.824C18.8706 5.8 19.6386 5.016 20.6146 4.472C21.5906 3.928 22.7106 3.656 23.9746 3.656Z" fill="#A5A5A5"/>
</svg>
