<svg width="34" height="20" viewBox="0 0 34 20" fill="none" xmlns="http://www.w3.org/2000/svg">
<path d="M4.71613 4.18603C5.61613 4.18603 6.38413 4.40803 7.02013 4.85203C7.65613 5.29603 8.10013 5.88403 8.35213 6.61603V0.910034H10.4221V14.23H8.35213V11.926C8.10013 12.658 7.65613 13.246 7.02013 13.69C6.38413 14.134 5.61613 14.356 4.71613 14.356C3.85213 14.356 3.07813 14.152 2.39413 13.744C1.72213 13.336 1.19413 12.748 0.810131 11.98C0.426131 11.212 0.234131 10.306 0.234131 9.26203C0.234131 8.23003 0.426131 7.33003 0.810131 6.56203C1.19413 5.79403 1.72213 5.20603 2.39413 4.79803C3.07813 4.39003 3.85213 4.18603 4.71613 4.18603ZM5.34613 5.98603C4.43413 5.98603 3.70213 6.28003 3.15013 6.86803C2.61013 7.44403 2.34013 8.24203 2.34013 9.26203C2.34013 10.282 2.61013 11.086 3.15013 11.674C3.70213 12.25 4.43413 12.538 5.34613 12.538C5.92213 12.538 6.43813 12.406 6.89413 12.142C7.35013 11.866 7.71013 11.482 7.97413 10.99C8.23813 10.498 8.37013 9.92203 8.37013 9.26203C8.37013 8.61403 8.23813 8.04403 7.97413 7.55203C7.71013 7.04803 7.35013 6.66403 6.89413 6.40003C6.43813 6.12403 5.92213 5.98603 5.34613 5.98603Z" fill="#29A8FF"/>
<path d="M22.1006 8.79403C22.1006 9.13003 22.0766 9.42403 22.0286 9.67603H14.3966C14.4326 10.696 14.7146 11.452 15.2426 11.944C15.7706 12.436 16.4246 12.682 17.2046 12.682C17.8886 12.682 18.4646 12.508 18.9326 12.16C19.4126 11.812 19.7066 11.35 19.8146 10.774H22.0106C21.8786 11.47 21.6026 12.088 21.1826 12.628C20.7626 13.168 20.2166 13.594 19.5446 13.906C18.8726 14.206 18.1226 14.356 17.2946 14.356C16.3346 14.356 15.4826 14.152 14.7386 13.744C14.0066 13.336 13.4306 12.748 13.0106 11.98C12.5906 11.212 12.3806 10.306 12.3806 9.26203C12.3806 8.23003 12.5906 7.33003 13.0106 6.56203C13.4306 5.79403 14.0066 5.20603 14.7386 4.79803C15.4826 4.39003 16.3346 4.18603 17.2946 4.18603C18.2666 4.18603 19.1126 4.39003 19.8326 4.79803C20.5646 5.19403 21.1226 5.74603 21.5066 6.45403C21.9026 7.15003 22.1006 7.93003 22.1006 8.79403ZM20.0306 8.74003C20.0546 8.09203 19.9406 7.55203 19.6886 7.12003C19.4486 6.67603 19.1126 6.35203 18.6806 6.14803C18.2606 5.93203 17.7986 5.82403 17.2946 5.82403C16.4906 5.82403 15.8186 6.07003 15.2786 6.56203C14.7386 7.05403 14.4446 7.78003 14.3966 8.74003H20.0306Z" fill="#29A8FF"/>
<path d="M28.0599 4.18603C28.9599 4.18603 29.7279 4.40803 30.3639 4.85203C30.9999 5.29603 31.4499 5.88403 31.7139 6.61603V4.31203H33.7659V14.338C33.7659 15.262 33.5739 16.078 33.1899 16.786C32.8179 17.506 32.2779 18.07 31.5699 18.478C30.8619 18.886 30.0219 19.09 29.0499 19.09C27.6579 19.09 26.5299 18.76 25.6659 18.1C24.8139 17.44 24.2799 16.546 24.0639 15.418H26.0979C26.2659 16.006 26.5899 16.462 27.0699 16.786C27.5499 17.122 28.1619 17.29 28.9059 17.29C29.7219 17.29 30.3939 17.038 30.9219 16.534C31.4499 16.03 31.7139 15.298 31.7139 14.338V11.926C31.4499 12.658 30.9999 13.246 30.3639 13.69C29.7279 14.134 28.9599 14.356 28.0599 14.356C27.1959 14.356 26.4219 14.152 25.7379 13.744C25.0659 13.336 24.5379 12.748 24.1539 11.98C23.7699 11.212 23.5779 10.306 23.5779 9.26203C23.5779 8.23003 23.7699 7.33003 24.1539 6.56203C24.5379 5.79403 25.0659 5.20603 25.7379 4.79803C26.4219 4.39003 27.1959 4.18603 28.0599 4.18603ZM28.6899 5.98603C27.7779 5.98603 27.0459 6.28003 26.4939 6.86803C25.9539 7.44403 25.6839 8.24203 25.6839 9.26203C25.6839 10.282 25.9539 11.086 26.4939 11.674C27.0459 12.25 27.7779 12.538 28.6899 12.538C29.2659 12.538 29.7819 12.406 30.2379 12.142C30.6939 11.866 31.0539 11.482 31.3179 10.99C31.5819 10.498 31.7139 9.92203 31.7139 9.26203C31.7139 8.61403 31.5819 8.04403 31.3179 7.55203C31.0539 7.04803 30.6939 6.66403 30.2379 6.40003C29.7819 6.12403 29.2659 5.98603 28.6899 5.98603Z" fill="#29A8FF"/>
</svg>
