<svg width="10" height="12" viewBox="0 0 10 12" fill="none" xmlns="http://www.w3.org/2000/svg">
<path d="M9.86001 5.52304C9.86001 5.85904 9.83602 6.15304 9.78802 6.40504H2.15601C2.19201 7.42504 2.47401 8.18104 3.00201 8.67304C3.53001 9.16504 4.18402 9.41104 4.96402 9.41104C5.64802 9.41104 6.22402 9.23704 6.69202 8.88904C7.17202 8.54104 7.46602 8.07904 7.57402 7.50304H9.77002C9.63802 8.19904 9.36201 8.81704 8.94202 9.35704C8.52202 9.89704 7.97602 10.323 7.30402 10.635C6.63202 10.935 5.88202 11.085 5.05402 11.085C4.09402 11.085 3.24201 10.881 2.49801 10.473C1.76602 10.065 1.19001 9.47704 0.770015 8.70904C0.350015 7.94104 0.140015 7.03504 0.140015 5.99104C0.140015 4.95904 0.350015 4.05904 0.770015 3.29104C1.19001 2.52304 1.76602 1.93504 2.49801 1.52704C3.24201 1.11904 4.09402 0.915039 5.05402 0.915039C6.02602 0.915039 6.87201 1.11904 7.59202 1.52704C8.32402 1.92304 8.88202 2.47504 9.26602 3.18304C9.66201 3.87904 9.86001 4.65904 9.86001 5.52304ZM7.79002 5.46904C7.81402 4.82104 7.70002 4.28104 7.44802 3.84904C7.20801 3.40504 6.87201 3.08104 6.44002 2.87704C6.02001 2.66104 5.55801 2.55304 5.05402 2.55304C4.25002 2.55304 3.57801 2.79904 3.03801 3.29104C2.49801 3.78304 2.20401 4.50904 2.15601 5.46904H7.79002Z" fill="#29A8FF"/>
</svg>
