<svg width="24" height="16" viewBox="0 0 24 16" fill="none" xmlns="http://www.w3.org/2000/svg">
<path d="M3.76258 4.89506C4.92658 4.89506 5.85658 5.19506 6.55258 5.79506C7.26058 6.38306 7.69258 7.17506 7.84858 8.17106H5.90458C5.82058 7.63106 5.58658 7.19906 5.20258 6.87506C4.83058 6.53906 4.33258 6.37106 3.70858 6.37106C3.19258 6.37106 2.79058 6.49706 2.50258 6.74906C2.22658 6.98906 2.08858 7.31906 2.08858 7.73906C2.08858 8.05106 2.19058 8.30306 2.39458 8.49506C2.59858 8.68706 2.85058 8.83706 3.15058 8.94506C3.46258 9.05306 3.90058 9.17306 4.46458 9.30506C5.20858 9.47306 5.80858 9.64706 6.26458 9.82706C6.73258 10.0071 7.12858 10.2951 7.45258 10.6911C7.78858 11.0751 7.95658 11.6031 7.95658 12.2751C7.95658 13.1031 7.63858 13.7751 7.00258 14.2911C6.37858 14.8071 5.53258 15.0651 4.46458 15.0651C3.22858 15.0651 2.22658 14.7771 1.45858 14.2011C0.702576 13.6251 0.246576 12.8211 0.0905762 11.7891H2.08858C2.14858 12.3291 2.38858 12.7671 2.80858 13.1031C3.22858 13.4391 3.78058 13.6071 4.46458 13.6071C4.95658 13.6071 5.34058 13.4811 5.61658 13.2291C5.90458 12.9651 6.04858 12.6351 6.04858 12.2391C6.04858 11.8911 5.94058 11.6151 5.72458 11.4111C5.50858 11.2071 5.23858 11.0511 4.91458 10.9431C4.59058 10.8231 4.14658 10.7031 3.58258 10.5831C2.86258 10.4151 2.27458 10.2471 1.81858 10.0791C1.37458 9.91106 0.990576 9.64106 0.666576 9.26906C0.354576 8.88506 0.198576 8.36906 0.198576 7.72106C0.198576 6.88106 0.510576 6.20306 1.13458 5.68706C1.77058 5.15906 2.64658 4.89506 3.76258 4.89506Z" fill="#29A8FF"/>
<path d="M9.72634 2.14106C9.72634 1.79306 9.84634 1.50506 10.0863 1.27706C10.3263 1.04906 10.6443 0.935059 11.0403 0.935059C11.4363 0.935059 11.7543 1.04906 11.9943 1.27706C12.2463 1.50506 12.3723 1.79306 12.3723 2.14106C12.3723 2.48906 12.2463 2.77106 11.9943 2.98706C11.7543 3.20306 11.4363 3.31106 11.0403 3.31106C10.6443 3.31106 10.3263 3.20306 10.0863 2.98706C9.84634 2.77106 9.72634 2.48906 9.72634 2.14106ZM12.0663 5.02106V14.9391H10.0143V5.02106H12.0663Z" fill="#29A8FF"/>
<path d="M20.0935 4.85906C21.2455 4.85906 22.1695 5.23106 22.8655 5.97506C23.5615 6.71906 23.9095 7.78106 23.9095 9.16106V14.9391H21.8575V9.37706C21.8575 8.48906 21.6295 7.80506 21.1735 7.32506C20.7175 6.83306 20.0935 6.58706 19.3015 6.58706C18.4855 6.58706 17.8315 6.85106 17.3395 7.37906C16.8475 7.89506 16.6015 8.65706 16.6015 9.66506V14.9391H14.5495V5.02106H16.6015V7.19906C16.8655 6.45506 17.3095 5.87906 17.9335 5.47106C18.5575 5.06306 19.2775 4.85906 20.0935 4.85906Z" fill="#29A8FF"/>
</svg>
